<svg width="98" height="99" viewBox="0 0 98 99" fill="none" xmlns="http://www.w3.org/2000/svg">
<g filter="url(#filter0_d_378_243)">
<rect x="0.5" y="1.5" width="89" height="89" rx="5.5" fill="#D8FB99" stroke="black"/>
<mask id="path-2-outside-1_378_243" maskUnits="userSpaceOnUse" x="21.5" y="18" width="49" height="61" fill="black">
<rect fill="white" x="21.5" y="18" width="49" height="61"/>
<path d="M22.9034 78V19.8182H47.1648C51.5208 19.8182 55.1667 20.4337 58.1023 21.6648C61.0568 22.8958 63.2727 24.6193 64.75 26.8352C66.2462 29.0511 66.9943 31.6174 66.9943 34.5341C66.9943 36.75 66.5303 38.7292 65.6023 40.4716C64.6742 42.1951 63.3958 43.625 61.767 44.7614C60.1383 45.8977 58.2538 46.6932 56.1136 47.1477V47.7159C58.4621 47.8295 60.6307 48.464 62.6193 49.6193C64.6269 50.7746 66.2367 52.3845 67.4489 54.4489C68.661 56.4943 69.267 58.9186 69.267 61.7216C69.267 64.8466 68.4716 67.6402 66.8807 70.1023C65.2898 72.5455 62.9886 74.4773 59.9773 75.8977C56.9659 77.2992 53.3106 78 49.0114 78H22.9034ZM36.9659 66.6648H45.6591C48.7083 66.6648 50.9527 66.0871 52.392 64.9318C53.8504 63.7765 54.5795 62.1667 54.5795 60.1023C54.5795 58.6061 54.2292 57.3182 53.5284 56.2386C52.8277 55.1402 51.8333 54.2973 50.5455 53.7102C49.2576 53.1042 47.714 52.8011 45.9148 52.8011H36.9659V66.6648ZM36.9659 43.7386H44.75C46.2841 43.7386 47.6477 43.483 48.8409 42.9716C50.0341 42.4602 50.9621 41.7216 51.625 40.7557C52.3068 39.7898 52.6477 38.625 52.6477 37.2614C52.6477 35.3106 51.9564 33.7765 50.5739 32.6591C49.1913 31.5417 47.3258 30.983 44.9773 30.983H36.9659V43.7386Z"/>
</mask>
<path d="M22.9034 78V19.8182H47.1648C51.5208 19.8182 55.1667 20.4337 58.1023 21.6648C61.0568 22.8958 63.2727 24.6193 64.75 26.8352C66.2462 29.0511 66.9943 31.6174 66.9943 34.5341C66.9943 36.75 66.5303 38.7292 65.6023 40.4716C64.6742 42.1951 63.3958 43.625 61.767 44.7614C60.1383 45.8977 58.2538 46.6932 56.1136 47.1477V47.7159C58.4621 47.8295 60.6307 48.464 62.6193 49.6193C64.6269 50.7746 66.2367 52.3845 67.4489 54.4489C68.661 56.4943 69.267 58.9186 69.267 61.7216C69.267 64.8466 68.4716 67.6402 66.8807 70.1023C65.2898 72.5455 62.9886 74.4773 59.9773 75.8977C56.9659 77.2992 53.3106 78 49.0114 78H22.9034ZM36.9659 66.6648H45.6591C48.7083 66.6648 50.9527 66.0871 52.392 64.9318C53.8504 63.7765 54.5795 62.1667 54.5795 60.1023C54.5795 58.6061 54.2292 57.3182 53.5284 56.2386C52.8277 55.1402 51.8333 54.2973 50.5455 53.7102C49.2576 53.1042 47.714 52.8011 45.9148 52.8011H36.9659V66.6648ZM36.9659 43.7386H44.75C46.2841 43.7386 47.6477 43.483 48.8409 42.9716C50.0341 42.4602 50.9621 41.7216 51.625 40.7557C52.3068 39.7898 52.6477 38.625 52.6477 37.2614C52.6477 35.3106 51.9564 33.7765 50.5739 32.6591C49.1913 31.5417 47.3258 30.983 44.9773 30.983H36.9659V43.7386Z" fill="black"/>
<path d="M22.9034 78H21.9034V79H22.9034V78ZM22.9034 19.8182V18.8182H21.9034V19.8182H22.9034ZM58.1023 21.6648L57.7155 22.587L57.7177 22.5878L58.1023 21.6648ZM64.75 26.8352L63.9179 27.3899L63.9212 27.3948L64.75 26.8352ZM65.6023 40.4716L66.4828 40.9457L66.4849 40.9417L65.6023 40.4716ZM61.767 44.7614L61.1949 43.9412L61.1949 43.9412L61.767 44.7614ZM56.1136 47.1477L55.9059 46.1695L55.1136 46.3378V47.1477H56.1136ZM56.1136 47.7159H55.1136V48.6687L56.0653 48.7147L56.1136 47.7159ZM62.6193 49.6193L62.117 50.484L62.1205 50.486L62.6193 49.6193ZM67.4489 54.4489L66.5865 54.9552L66.5886 54.9587L67.4489 54.4489ZM66.8807 70.1023L67.7187 70.6479L67.7206 70.645L66.8807 70.1023ZM59.9773 75.8977L60.3992 76.8044L60.4039 76.8022L59.9773 75.8977ZM36.9659 66.6648H35.9659V67.6648H36.9659V66.6648ZM52.392 64.9318L51.7711 64.148L51.7661 64.152L52.392 64.9318ZM53.5284 56.2386L52.6853 56.7765L52.6896 56.7831L53.5284 56.2386ZM50.5455 53.7102L50.1196 54.6151L50.1306 54.6201L50.5455 53.7102ZM36.9659 52.8011V51.8011H35.9659V52.8011H36.9659ZM36.9659 43.7386H35.9659V44.7386H36.9659V43.7386ZM51.625 40.7557L50.808 40.1789L50.8005 40.1898L51.625 40.7557ZM50.5739 32.6591L51.2024 31.8813L51.2024 31.8813L50.5739 32.6591ZM36.9659 30.983V29.983H35.9659V30.983H36.9659ZM22.9034 78H23.9034V19.8182H22.9034H21.9034V78H22.9034ZM22.9034 19.8182V20.8182H47.1648V19.8182V18.8182H22.9034V19.8182ZM47.1648 19.8182V20.8182C51.4339 20.8182 54.9386 21.4224 57.7155 22.587L58.1023 21.6648L58.489 20.7426C55.3947 19.445 51.6078 18.8182 47.1648 18.8182V19.8182ZM58.1023 21.6648L57.7177 22.5878C60.5273 23.7585 62.5706 25.369 63.9179 27.3899L64.75 26.8352L65.5821 26.2805C63.9748 23.8697 61.5864 22.0331 58.4869 20.7417L58.1023 21.6648ZM64.75 26.8352L63.9212 27.3948C65.2957 29.4304 65.9943 31.7979 65.9943 34.5341H66.9943H67.9943C67.9943 31.4369 67.1967 28.6719 65.5788 26.2756L64.75 26.8352ZM66.9943 34.5341H65.9943C65.9943 36.6064 65.5616 38.4208 64.7197 40.0015L65.6023 40.4716L66.4849 40.9417C67.499 39.0376 67.9943 36.8936 67.9943 34.5341H66.9943ZM65.6023 40.4716L64.7218 39.9975C63.8691 41.581 62.6972 42.8931 61.1949 43.9412L61.767 44.7614L62.3392 45.5815C64.0945 44.3569 65.4793 42.8091 66.4827 40.9457L65.6023 40.4716ZM61.767 44.7614L61.1949 43.9412C59.6864 44.9936 57.9286 45.7399 55.9059 46.1695L56.1136 47.1477L56.3214 48.1259C58.579 47.6464 60.5901 46.8018 62.3392 45.5815L61.767 44.7614ZM56.1136 47.1477H55.1136V47.7159H56.1136H57.1136V47.1477H56.1136ZM56.1136 47.7159L56.0653 48.7147C58.2576 48.8208 60.2699 49.4109 62.117 50.484L62.6193 49.6193L63.1217 48.7546C60.9914 47.5171 58.6666 46.8383 56.162 46.7171L56.1136 47.7159ZM62.6193 49.6193L62.1205 50.486C63.9725 51.5518 65.4592 53.0352 66.5865 54.9552L67.4489 54.4489L68.3112 53.9425C67.0143 51.7337 65.2813 49.9974 63.1181 48.7526L62.6193 49.6193ZM67.4489 54.4489L66.5886 54.9587C67.694 56.8241 68.267 59.0656 68.267 61.7216H69.267H70.267C70.267 58.7715 69.6279 56.1645 68.3092 53.9391L67.4489 54.4489ZM69.267 61.7216H68.267C68.267 64.6674 67.5202 67.27 66.0408 69.5596L66.8807 70.1023L67.7206 70.645C69.423 68.0103 70.267 65.0258 70.267 61.7216H69.267ZM66.8807 70.1023L66.0427 69.5566C64.5667 71.8232 62.4186 73.6405 59.5507 74.9933L59.9773 75.8977L60.4039 76.8022C63.5586 75.3141 66.0128 73.2677 67.7187 70.6479L66.8807 70.1023ZM59.9773 75.8977L59.5553 74.9911C56.709 76.3158 53.2061 77 49.0114 77V78V79C53.4151 79 57.2228 78.2827 60.3992 76.8043L59.9773 75.8977ZM49.0114 78V77H22.9034V78V79H49.0114V78ZM36.9659 66.6648V67.6648H45.6591V66.6648V65.6648H36.9659V66.6648ZM45.6591 66.6648V67.6648C48.7993 67.6648 51.3178 67.0763 53.018 65.7117L52.392 64.9318L51.7661 64.152C50.5875 65.0979 48.6174 65.6648 45.6591 65.6648V66.6648ZM52.392 64.9318L53.013 65.7157C54.7392 64.3482 55.5795 62.434 55.5795 60.1023H54.5795H53.5795C53.5795 61.8994 52.9616 63.2048 51.7711 64.148L52.392 64.9318ZM54.5795 60.1023H55.5795C55.5795 58.4449 55.1894 56.9608 54.3672 55.6942L53.5284 56.2386L52.6896 56.7831C53.269 57.6756 53.5795 58.7672 53.5795 60.1023H54.5795ZM53.5284 56.2386L54.3715 55.7008C53.5579 54.4255 52.408 53.4603 50.9603 52.8003L50.5455 53.7102L50.1306 54.6201C51.2586 55.1344 52.0974 55.8548 52.6853 56.7765L53.5284 56.2386ZM50.5455 53.7102L50.9713 52.8054C49.5198 52.1224 47.8235 51.8011 45.9148 51.8011V52.8011V53.8011C47.6045 53.8011 48.9953 54.0859 50.1197 54.615L50.5455 53.7102ZM45.9148 52.8011V51.8011H36.9659V52.8011V53.8011H45.9148V52.8011ZM36.9659 52.8011H35.9659V66.6648H36.9659H37.9659V52.8011H36.9659ZM36.9659 43.7386V44.7386H44.75V43.7386V42.7386H36.9659V43.7386ZM44.75 43.7386V44.7386C46.3953 44.7386 47.8967 44.4642 49.2348 43.8907L48.8409 42.9716L48.447 42.0524C47.3988 42.5017 46.1729 42.7386 44.75 42.7386V43.7386ZM48.8409 42.9716L49.2348 43.8907C50.5826 43.3131 51.6681 42.4602 52.4495 41.3215L51.625 40.7557L50.8005 40.1898C50.2562 40.983 49.4855 41.6074 48.447 42.0524L48.8409 42.9716ZM51.625 40.7557L52.442 41.3324C53.2605 40.1728 53.6477 38.7988 53.6477 37.2614H52.6477H51.6477C51.6477 38.4512 51.3532 39.4067 50.808 40.179L51.625 40.7557ZM52.6477 37.2614H53.6477C53.6477 35.0421 52.8448 33.2087 51.2024 31.8813L50.5739 32.6591L49.9453 33.4368C51.0681 34.3443 51.6477 35.5791 51.6477 37.2614H52.6477ZM50.5739 32.6591L51.2024 31.8813C49.5919 30.5797 47.4807 29.983 44.9773 29.983V30.983V31.983C47.1708 31.983 48.7907 32.5036 49.9453 33.4368L50.5739 32.6591ZM44.9773 30.983V29.983H36.9659V30.983V31.983H44.9773V30.983ZM36.9659 30.983H35.9659V43.7386H36.9659H37.9659V30.983H36.9659Z" fill="black" mask="url(#path-2-outside-1_378_243)"/>
</g>
<defs>
<filter id="filter0_d_378_243" x="0" y="1" width="97.2" height="97.2" filterUnits="userSpaceOnUse" color-interpolation-filters="sRGB">
<feFlood flood-opacity="0" result="BackgroundImageFix"/>
<feColorMatrix in="SourceAlpha" type="matrix" values="0 0 0 0 0 0 0 0 0 0 0 0 0 0 0 0 0 0 127 0" result="hardAlpha"/>
<feOffset dx="7" dy="7"/>
<feGaussianBlur stdDeviation="0.1"/>
<feComposite in2="hardAlpha" operator="out"/>
<feColorMatrix type="matrix" values="0 0 0 0 0.0119817 0 0 0 0 9.00065e-07 0 0 0 0 9.00065e-07 0 0 0 1 0"/>
<feBlend mode="normal" in2="BackgroundImageFix" result="effect1_dropShadow_378_243"/>
<feBlend mode="normal" in="SourceGraphic" in2="effect1_dropShadow_378_243" result="shape"/>
</filter>
</defs>
</svg>
